Coordinates
version=1
nRows=6
nColumns=34
inDegrees=yes

Units are S.I. units (second, meters, Newtons, ...)
If the header above contains a line with 'inDegrees', this indicates whether rotational values are in degrees (yes) or radians (no).

endheader
time	pelvis_tilt	pelvis_list	pelvis_rotation	pelvis_tx	pelvis_ty	pelvis_tz	hip_flexion_r	hip_adduction_r	hip_rotation_r	knee_angle_r	ankle_angle_r	subtalar_angle_r	mtp_angle_r	hip_flexion_l	hip_adduction_l	hip_rotation_l	knee_angle_l	ankle_angle_l	subtalar_angle_l	mtp_angle_l	lumbar_extension	lumbar_bending	lumbar_rotation	arm_flex_r	arm_add_r	arm_rot_r	elbow_flex_r	pro_sup_r	arm_flex_l	arm_add_l	arm_rot_l	elbow_flex_l	pro_sup_l
      3.20000000	     -6.80274647	      2.45219818	      4.08314117	      1.91526668	      0.92930962	     -0.16001851	      2.99515113	     -8.15621933	    -15.01978974	     12.86668694	      2.37430859	     -6.79275156	      0.00000000	      7.19132501	     -5.32726495	    -14.91839318	     15.39594842	      0.53399516	     10.04968280	      0.00000000	     -4.50954784	     -4.42301340	      7.94546378	     91.64425390	     -5.40470686	      2.34016427	     90.18714476	     99.18082626	    101.72243055	     -2.59966730	     26.63963004	     99.31505788	     91.46255744
      3.21666670	     -7.22369389	      2.47079335	      4.57901164	      1.91820840	      0.93369504	     -0.16031985	      2.16752389	     -7.88041644	    -15.69818440	     10.32735089	     -1.68112201	     -6.67202714	      0.00000000	      6.56317875	     -4.80296649	    -14.71603770	     12.67988747	     -3.11934810	      9.87848523	      0.00000000	     -3.93577142	     -5.09571474	      9.08506094	    102.39006798	     -6.18708941	      2.39316803	     73.88339501	     98.80500277	    106.28858510	     -1.33839489	     25.39257815	     95.07243536	     91.12310143
      3.23333330	     -7.74238721	      2.43746314	      5.09473044	      1.92154942	      0.93605807	     -0.16076933	      1.78843071	     -7.69890889	    -16.17013316	      8.43774447	     -5.34118201	     -6.82177777	      0.00000000	      6.28745008	     -4.34785466	    -14.28871620	     10.46093525	     -6.32898219	      9.29700780	      0.00000000	     -3.53754059	     -5.77918208	     10.44856746	    113.76209950	     -6.66670963	      3.49476944	     55.46468750	     98.48261726	    110.72350480	     -0.04873050	     24.72307938	     90.96798221	     90.40168803
      3.25000000	     -8.35072366	      2.34398117	      5.61421768	      1.92613931	      0.94072951	     -0.16159207	      1.57776460	     -7.56287985	    -16.43362145	      6.71847852	     -8.84920853	     -6.76895275	      0.00000000	      6.18626428	     -3.93521951	    -13.68503512	      8.44571445	     -9.37743169	      8.45529180	      0.00000000	     -3.15030778	     -6.54072337	     11.79706478	    124.55465359	     -6.94388678	      5.64864834	     37.82412887	     97.97434347	    114.63074708	      1.53727567	     24.73643497	     87.65063956	     89.39835062
      3.26666670	     -8.97238875	      2.22778011	      6.08022493	      1.93256155	      0.94366490	     -0.16226592	      1.47496229	     -7.51548038	    -16.59855035	      5.35398214	    -12.08506863	     -6.44280821	      0.00000000	      6.06435664	     -3.56363520	    -12.88951545	      6.59455442	    -12.11549099	      7.60627378	      0.00000000	     -2.71716312	     -7.16438628	     13.13234765	    134.17641014	     -7.26787334	     10.10322931	     23.15960187	     96.53738049	    117.79331419	      2.94769967	     25.19491094	     86.11459840	     87.87090144
      3.28333330	     -9.56784282	      2.08050686	      6.49996740	      1.93988158	      0.94450447	     -0.16152691	      1.36259805	     -7.42304621	    -16.74130083	      4.22781787	    -15.13413732	     -6.07983285	      0.00000000	      5.83937371	     -3.29843752	    -12.11791997	      4.88854476	    -14.55107088	      6.77380350	      0.00000000	     -2.18103502	     -7.62525010	     14.13031462	    142.17307237	     -7.26933277	     17.81872142	     12.48731901	     93.05771216	    120.59786535	      4.04160466	     25.55395681	     85.32021026	     85.81696753
